<?xml version="1.0" encoding="utf-8"?>
<!-- Generator: Adobe Illustrator 19.0.0, SVG Export Plug-In . SVG Version: 6.00 Build 0)  -->
<svg version="1.1" id="Layer_1" xmlns="http://www.w3.org/2000/svg" xmlns:xlink="http://www.w3.org/1999/xlink" x="0px" y="0px"
	 viewBox="0 0 16 16" enable-background="new 0 0 16 16" xml:space="preserve">
<path fill="#FFFFFF" d="M6.5,5h-6c-0.6,0-1-0.4-1-1V1c0-0.6,0.4-1,1-1h6c0.6,0,1,0.4,1,1v3C7.5,4.6,7,5,6.5,5z"/>
<path fill="#FFFFFF" d="M15.4,5h-6c-0.6,0-1-0.4-1-1V1c0-0.6,0.4-1,1-1h6c0.6,0,1,0.4,1,1v3C16.4,4.6,16,5,15.4,5z"/>
<path fill="#FFFFFF" d="M11.2,10.5H4.7c-0.6,0-1-0.4-1-1v-3c0-0.6,0.4-1,1-1h6.4c0.6,0,1,0.4,1,1v3C12.2,10.1,11.7,10.5,11.2,10.5z"
	/>
<path fill="#FFFFFF" d="M20,10.5h-6c-0.6,0-1-0.4-1-1v-3c0-0.6,0.4-1,1-1h6c0.6,0,1,0.4,1,1v3C21,10.1,20.5,10.5,20,10.5z"/>
<path fill="#FFFFFF" d="M1.8,10.5h-6c-0.6,0-1-0.4-1-1v-3c0-0.6,0.4-1,1-1h6c0.6,0,1,0.4,1,1v3C2.8,10.1,2.4,10.5,1.8,10.5z"/>
<path fill="#FFFFFF" d="M6.5,16h-6c-0.6,0-1-0.4-1-1v-3c0-0.6,0.4-1,1-1h6c0.6,0,1,0.4,1,1v3C7.5,15.6,7,16,6.5,16z"/>
<path fill="#FFFFFF" d="M15.4,16h-6c-0.6,0-1-0.4-1-1v-3c0-0.6,0.4-1,1-1h6c0.6,0,1,0.4,1,1v3C16.4,15.6,16,16,15.4,16z"/>
</svg>
