<?xml version="1.0" encoding="utf-8"?>
<!-- Generator: Adobe Illustrator 19.0.0, SVG Export Plug-In . SVG Version: 6.00 Build 0)  -->
<svg version="1.1" xmlns="http://www.w3.org/2000/svg" xmlns:xlink="http://www.w3.org/1999/xlink" x="0px" y="0px"
	 viewBox="-247 249 16 16" style="enable-background:new -247 249 16 16;" xml:space="preserve">
<style type="text/css">
	.st0{fill:#FFFFFF;}
</style>
<g id="Layer_1">
</g>
<g id="Layer_2">
	<path class="st0" d="M-237.7,252c0,0.3,0,0.7,0,1c0.7,0,1.5,0,2.2,0c0,0.4,0,0.8,0,1.2c-0.7,0-1.5,0-2.2,0c0,0.3,0,0.6,0,1
		c0.7,0,1.5,0,2.2,0c0,0.4,0,0.8,0,1.2c-0.7,0-1.5,0-2.2,0c0,0.3,0,0.7,0,1c0.7,0,1.5,0,2.2,0c-0.1,0.7-0.4,1.2-0.8,1.7
		c-0.6,0.7-1.3,1.2-2.3,1.3c-2.1,0.3-3.7-1.2-3.9-3c0.7,0,1.5,0,2.2,0c0-0.3,0-0.7,0-1c-0.7,0-1.5,0-2.2,0c0-0.4,0-0.8,0-1.2
		c0.7,0,1.5,0,2.2,0c0-0.3,0-0.6,0-1c-0.7,0-1.5,0-2.2,0c0-0.4,0-0.8,0-1.2c0.7,0,1.5,0,2.2,0c0-0.3,0-0.6,0-1c-0.7,0-1.5,0-2.2,0
		c0.1-1.3,1.3-3,3.4-3c2.1,0,3.4,1.6,3.5,3C-236.2,252-237,252-237.7,252z"/>
	<path class="st0" d="M-238.5,262.4c0,0.5,0,1,0,1.5c0.8,0,1.6,0,2.5,0c0,0.4,0,0.7,0,1c-2,0-4,0-6,0c0-0.3,0-0.7,0-1
		c0.8,0,1.6,0,2.5,0c0-0.5,0-1,0-1.5c-0.2,0-0.4-0.1-0.6-0.1c-1.7-0.4-2.9-1.3-3.8-2.8c-0.4-0.8-0.6-1.6-0.6-2.5
		c0-0.3,0.2-0.5,0.5-0.5c0.3,0,0.5,0.2,0.6,0.5c0,0.1,0,0.2,0,0.2c0,0.5,0.1,0.9,0.2,1.3c0.6,1.5,1.7,2.5,3.3,2.8
		c2.2,0.5,4.4-0.8,5.1-2.9c0.1-0.4,0.2-0.8,0.2-1.3c0-0.1,0-0.2,0-0.3c0.1-0.2,0.3-0.4,0.6-0.3c0.2,0,0.4,0.3,0.4,0.5
		c0,0.6-0.1,1.2-0.3,1.8c-0.7,1.8-2,2.9-3.8,3.5c-0.2,0.1-0.4,0.1-0.6,0.1C-238.3,262.4-238.4,262.4-238.5,262.4z"/>
</g>
</svg>
