<?xml version="1.0" encoding="utf-8"?>
<!-- Generator: Adobe Illustrator 19.0.0, SVG Export Plug-In . SVG Version: 6.00 Build 0)  -->
<svg version="1.1" id="Layer_1" xmlns="http://www.w3.org/2000/svg" xmlns:xlink="http://www.w3.org/1999/xlink" x="0px" y="0px"
	 viewBox="0 0 16 16" style="enable-background:new 0 0 16 16;" xml:space="preserve">
<style type="text/css">
	.st0{fill:#FFFFFF;}
</style>
<g id="XMLID_15_">
	<path id="XMLID_32_" class="st0" d="M4.6,12.6c-0.1,0-0.1,0-0.1-0.1c-0.1-0.2-1.9-5.8-2-6.2c0,0,0-0.1,0-0.1c0.3-0.3,0.7-0.5,1-0.8
		c0.5-0.3,3.8-2.6,4.3-3C8,2.3,8,2.4,8.3,2.6c0.4,0.3,4.4,3.1,5.1,3.6c0.2,0.1,0.2,0.2,0.1,0.4c-0.2,0.6-2,5.8-2.1,6
		c0,0-0.1,0.1-0.1,0.1C10.2,12.6,5.7,12.6,4.6,12.6z M8,4.2c-2,0-3.7,1.6-3.7,3.6s1.7,3.6,3.7,3.6s3.7-1.6,3.7-3.6S10,4.2,8,4.2z"/>
	<path id="XMLID_29_" class="st0" d="M7.8,1.9c0,0,0,0.1-0.1,0.1C7.1,2.4,2.2,5.9,2.1,5.9c-0.1,0-0.2,0-0.4,0
		C1.4,5.7,0.3,5.4,0.2,5.4c0,0,0-0.1,0-0.1C0.6,4.7,2.4,2.2,3,1.6c0.1-0.1,0.3-0.2,0.5-0.3c0.2-0.1,1.8-0.6,2-0.6
		C5.7,0.6,7.4,0.1,7.6,0c0.2-0.1,0.2,0.1,0.2,0.2C7.8,0.5,7.8,1.6,7.8,1.9z M4.4,1.7c-1,0.7-2.2,1.7-2.5,2.5
		C1.5,5.3,3.2,4.7,5.1,3.1C6.4,2,6.7,1.1,6.3,1C6,0.9,5.2,1.2,4.4,1.7z"/>
	<path id="XMLID_26_" class="st0" d="M4.1,12.8C4,12.8,4,12.9,4,12.9c-0.3,0.4-0.6,0.8-1,1.3c-0.1,0.1-0.1,0.1-0.1,0
		c-0.5-0.6-2.6-3.4-2.8-3.7c-0.1-0.1,0-0.3,0-0.4c0-1.4,0-2.9,0-4.3c0,0,0.1-0.1,0.1-0.1c0.4,0.1,1.6,0.5,1.8,0.5C2,6.4,2,6.5,2,6.6
		c0.1,0.4,1.9,5.6,2,5.9C4,12.6,4.1,12.7,4.1,12.8z M0.7,7.5c-0.5,0.2-0.4,1.5,0.1,2.9s1.4,2.5,1.9,2.3c0.5-0.2,0.4-1.5-0.1-2.9
		S1.2,7.3,0.7,7.5z"/>
	<ellipse id="XMLID_7_" class="st0" cx="7.9" cy="7.8" rx="0.7" ry="0.6"/>
	<path id="XMLID_22_" class="st0" d="M8.3,0.1C8.3,0,8.3,0,8.5,0c0.3,0.1,4.2,1.3,4.5,1.5c0.2,0.1,2.6,3.3,2.8,3.7
		c0.1,0.1,0.1,0.1-0.1,0.2c-0.3,0.1-1.3,0.4-1.5,0.5c-0.2,0.1-0.4,0-0.6-0.1C13.2,5.5,9,2.5,8.4,2.1c0,0-0.1-0.1-0.1-0.2
		C8.3,1.6,8.3,0.4,8.3,0.1z M9.3,1.1C9,1.5,9.8,2.7,11.2,3.7s2.8,1.5,3.1,1.1c0.3-0.4-0.5-1.6-1.9-2.6S9.7,0.7,9.3,1.1z"/>
	<path id="XMLID_19_" class="st0" d="M16,10.5c0,0.1-2.7,3.6-2.8,3.8c0,0-0.1,0-0.1,0c-0.3-0.3-0.9-1.2-1.1-1.3
		c-0.1-0.1-0.1-0.3-0.1-0.4c0.1-0.3,1-2.9,1.1-3.1c0.1-0.3,0.8-2.5,1-2.9c0-0.1,0.2-0.2,0.3-0.2c0.5-0.2,1-0.3,1.5-0.5
		c0.1,0,0.1,0,0.1,0.1c0,0.8,0,1.5,0,2.3C16,8.2,16,9.7,16,10.5z M15.3,6.6c-0.5-0.1-1.3,1.3-1.9,3.2s-0.7,3.5-0.3,3.6
		c0.5,0.1,1.3-1.3,1.9-3.2S15.8,6.8,15.3,6.6z"/>
	<path id="XMLID_16_" class="st0" d="M11.4,13c0,0,0.1,0,0.1,0.1c0.3,0.4,1,1.3,1,1.3c0.1,0.2,0.1,0.2-0.1,0.3
		C12,14.8,8.7,15.8,8.2,16c-0.3,0.1-0.6,0-0.9-0.1c-0.3-0.1-3.7-1.2-3.9-1.3c0,0-0.1-0.1,0-0.1c0.4-0.5,0.7-1,1.1-1.4
		c0,0,0.1-0.1,0.1-0.1C5.7,13,10.3,13,11.4,13z M8,13.4c-1.7,0-3.1,0.4-3.1,0.9c0,0.5,1.4,0.9,3.1,0.9s3.1-0.4,3.1-0.9
		C11.1,13.9,9.7,13.4,8,13.4z"/>
</g>
<polygon id="XMLID_14_" class="st0" points="0.2,22.8 -1.6,22.3 2.6,13.7 3.7,14.5 "/>
<polygon id="XMLID_17_" class="st0" points="14,23.7 15.8,23.2 13.2,13.7 12.1,14.5 "/>
</svg>
